<svg width="44" height="44" viewBox="0 0 44 44" fill="none" xmlns="http://www.w3.org/2000/svg">
<rect width="44" height="44" rx="22" fill="white"/>
<path d="M17.5 17.67V16.7C17.5 14.45 19.31 12.24 21.56 12.03C24.24 11.77 26.5 13.88 26.5 16.51V17.89" stroke="#2B2B2B" stroke-width="1.5" stroke-miterlimit="10" stroke-linecap="round" stroke-linejoin="round"/>
<path d="M19.0001 32H25.0001C29.0201 32 29.7401 30.39 29.9501 28.43L30.7001 22.43C30.9701 19.99 30.2701 18 26.0001 18H18.0001C13.7301 18 13.0301 19.99 13.3001 22.43L14.0501 28.43C14.2601 30.39 14.9801 32 19.0001 32Z" stroke="#2B2B2B" stroke-width="1.5" stroke-miterlimit="10" stroke-linecap="round" stroke-linejoin="round"/>
<path d="M25.4955 22H25.5045" stroke="#2B2B2B" stroke-width="2" stroke-linecap="round" stroke-linejoin="round"/>
<path d="M18.4945 22H18.5035" stroke="#2B2B2B" stroke-width="2" stroke-linecap="round" stroke-linejoin="round"/>
<circle cx="38" cy="7" r="4" fill="#FD1600"/>
</svg>
