<svg width="316" height="525" viewBox="0 0 316 525" fill="none" xmlns="http://www.w3.org/2000/svg">
<g opacity="0.4">
<path fill-rule="evenodd" clip-rule="evenodd" d="M71.2275 462.862C74.2918 455.431 76.8719 447.626 82.2145 441.448C82.5313 441.079 82.4898 440.523 82.1179 440.203C81.7449 439.886 81.1859 439.924 80.8658 440.292C75.3991 446.615 72.7188 454.582 69.5843 462.186C69.3967 462.634 69.6162 463.153 70.0702 463.338C70.5228 463.527 71.0399 463.311 71.2275 462.862Z" fill="white"/>
<path fill-rule="evenodd" clip-rule="evenodd" d="M59.9842 459.316C58.7127 456.145 58.0675 452.968 58.447 449.574C58.5015 449.09 58.1498 448.653 57.6637 448.594C57.1764 448.539 56.737 448.887 56.6837 449.369C56.2707 453.059 56.955 456.511 58.3363 459.959C58.5172 460.413 59.0334 460.638 59.4892 460.458C59.9433 460.282 60.1664 459.768 59.9842 459.316Z" fill="white"/>
<path fill-rule="evenodd" clip-rule="evenodd" d="M33.7958 456.719C30.5012 454.223 28.4128 450.998 27.5621 446.958C27.4615 446.481 26.991 446.172 26.5112 446.271C26.0326 446.366 25.7247 446.833 25.8252 447.309C26.7678 451.781 29.0769 455.355 32.7247 458.119C33.1146 458.416 33.6729 458.34 33.9677 457.955C34.2641 457.567 34.187 457.013 33.7958 456.719Z" fill="white"/>
<path fill-rule="evenodd" clip-rule="evenodd" d="M14.5712 491.732C15.0833 492.661 15.6794 493.547 16.3611 494.367C16.6645 494.733 17.3398 495.43 18.0219 495.76C18.7475 496.114 19.4783 496.105 20.0621 495.582C20.8369 494.887 21.0561 494.179 20.9931 493.543C20.9331 492.931 20.5821 492.336 20.0021 491.823C18.8933 490.842 16.887 490.154 15.6607 489.973C15.2138 489.021 14.8581 488.027 14.594 487.009C12.6269 479.422 17.5498 471.294 26.4912 467.019C29.6214 465.524 34.7327 466.189 40.0047 467.539C48.2137 469.64 56.7877 473.534 59.3307 474.594C59.9592 474.855 60.3588 474.94 60.4467 474.936C60.8762 474.924 61.0773 474.688 61.187 474.511C61.3429 474.254 61.3745 474.014 61.3498 473.8C61.3147 473.511 61.1663 473.228 60.8557 473.003C60.6836 472.88 60.4227 472.765 60.1366 472.662C59.9374 472.593 59.7073 472.55 59.5815 472.457C58.7772 471.853 58.0143 471.206 57.2427 470.562C54.6457 468.406 52.3503 466.025 50.1137 463.502C43.0067 455.484 35.339 447.425 31.4778 437.273C31.3045 436.818 30.7924 436.583 30.3339 436.754C29.8766 436.922 29.6458 437.429 29.8182 437.888C33.755 448.243 41.5374 456.486 48.7849 464.663C50.6876 466.809 52.6327 468.855 54.7607 470.752C50.3939 468.965 44.2848 466.659 38.5847 465.386C33.5154 464.254 28.7572 463.977 25.7143 465.43C15.9192 470.113 10.7199 479.131 12.8759 487.439C13.1069 488.328 13.4003 489.203 13.7578 490.05C6.23701 491.074 0.942973 497.418 1.43469 505.011C1.46555 505.498 1.88828 505.868 2.37655 505.841C2.86609 505.81 3.23682 505.394 3.20596 504.907C2.76301 498.064 7.68489 492.389 14.5712 491.732ZM16.8337 492.054C17.1108 492.467 17.4094 492.864 17.7276 493.251C17.8991 493.456 18.2378 493.828 18.6143 494.074C18.7029 494.131 18.8523 494.192 18.9219 494.219C19.1219 494.035 19.2445 493.879 19.2268 493.706C19.206 493.49 19.0291 493.317 18.8261 493.137C18.317 492.685 17.556 492.309 16.8337 492.054Z" fill="white"/>
<path fill-rule="evenodd" clip-rule="evenodd" d="M262.798 435.658C268.614 441.206 274.955 446.438 278.779 453.656C279.008 454.085 279.541 454.247 279.974 454.017C280.404 453.784 280.571 453.249 280.345 452.818C276.431 445.432 269.976 440.048 264.024 434.372C263.674 434.034 263.111 434.051 262.773 434.407C262.433 434.761 262.448 435.321 262.798 435.658Z" fill="white"/>
<path fill-rule="evenodd" clip-rule="evenodd" d="M270.175 426.463C273.592 426.427 276.787 426.976 279.813 428.559C280.245 428.785 280.78 428.616 281.01 428.184C281.238 427.75 281.073 427.214 280.643 426.99C277.353 425.268 273.888 424.656 270.173 424.694C269.684 424.698 269.288 425.098 269.29 425.588C269.29 426.075 269.689 426.469 270.175 426.463Z" fill="white"/>
<path fill-rule="evenodd" clip-rule="evenodd" d="M282.082 402.994C285.602 400.827 289.365 400.048 293.439 400.719C293.919 400.798 294.378 400.471 294.46 399.988C294.544 399.508 294.221 399.052 293.74 398.973C289.231 398.231 285.063 399.089 281.165 401.488C280.747 401.744 280.616 402.292 280.868 402.706C281.122 403.123 281.667 403.252 282.082 402.994Z" fill="white"/>
<path fill-rule="evenodd" clip-rule="evenodd" d="M256.41 372.392C255.359 372.533 254.317 372.768 253.306 373.106C252.855 373.256 251.961 373.633 251.406 374.15C250.813 374.698 250.557 375.382 250.833 376.116C251.2 377.09 251.781 377.551 252.396 377.722C252.988 377.888 253.67 377.776 254.359 377.422C255.675 376.743 257.042 375.122 257.655 374.045C258.705 373.973 259.76 374.002 260.805 374.124C268.588 375.039 274.382 382.572 275.127 392.454C275.387 395.914 272.916 400.437 269.748 404.862C264.816 411.752 258.081 418.333 256.172 420.32C255.701 420.811 255.477 421.153 255.449 421.236C255.305 421.641 255.452 421.914 255.577 422.08C255.76 422.319 255.973 422.435 256.18 422.489C256.463 422.561 256.781 422.526 257.103 422.318C257.279 422.202 257.481 422 257.681 421.771C257.817 421.61 257.941 421.411 258.073 421.328C258.927 420.797 259.807 420.32 260.687 419.834C263.637 418.195 266.687 416.917 269.849 415.747C279.897 412.026 290.186 407.799 301.048 407.877C301.535 407.88 301.939 407.488 301.945 406.998C301.955 406.511 301.565 406.113 301.075 406.107C289.998 406.026 279.495 410.294 269.248 414.087C266.559 415.083 263.947 416.156 261.409 417.452C264.656 414.029 269.018 409.17 272.269 404.318C275.161 400.003 277.143 395.668 276.89 392.306C276.073 381.48 269.551 373.367 261.026 372.367C260.114 372.26 259.192 372.217 258.273 372.243C260.043 364.862 256.047 357.63 248.791 355.338C248.326 355.19 247.828 355.45 247.677 355.915C247.528 356.383 247.782 356.879 248.247 357.027C254.785 359.092 258.293 365.736 256.41 372.392ZM255.29 374.384C254.806 374.493 254.327 374.628 253.852 374.784C253.598 374.87 253.129 375.051 252.763 375.312C252.678 375.374 252.567 375.491 252.516 375.547C252.615 375.8 252.717 375.971 252.884 376.017C253.093 376.075 253.319 375.973 253.56 375.849C254.166 375.539 254.791 374.965 255.29 374.384Z" fill="white"/>
<path fill-rule="evenodd" clip-rule="evenodd" d="M58.6053 139.161C50.1594 154.866 33.2879 161.251 17.6179 152.41C17.0962 152.115 16.4347 152.3 16.1403 152.815C15.8459 153.339 16.0299 154.002 16.5516 154.296C33.3477 163.782 51.4622 157.019 60.5153 140.192C60.7987 139.667 60.6009 139.005 60.0737 138.72C59.5465 138.444 58.8887 138.637 58.6053 139.161Z" fill="white"/>
<path d="M30.8048 145.674C32.5495 145.674 33.9638 144.26 33.9638 142.515C33.9638 140.771 32.5495 139.356 30.8048 139.356C29.0602 139.356 27.6459 140.771 27.6459 142.515C27.6459 144.26 29.0602 145.674 30.8048 145.674Z" fill="white"/>
<path d="M43.882 142.314C45.5925 142.314 46.9792 140.927 46.9792 139.217C46.9792 137.506 45.5925 136.12 43.882 136.12C42.1714 136.12 40.7848 137.506 40.7848 139.217C40.7848 140.927 42.1714 142.314 43.882 142.314Z" fill="white"/>
</g>
</svg>
